<svg width="292" height="423" viewBox="0 0 292 423" fill="none" xmlns="http://www.w3.org/2000/svg">
<path fill-rule="evenodd" clip-rule="evenodd" d="M7.74526 301.972L272.007 320.634L272.284 322.232C276.712 347.887 278.949 365.292 278.994 374.448L278.995 374.728C278.995 383.806 282.128 398.244 288.393 418.041L288.78 419.26L7.37643 419.696L4.05688 360.106L7.74526 301.972ZM164.195 174.103C174.94 174.575 185.769 178.673 186.606 181.292C188.469 187.125 191.464 212.093 201.316 215.93C211.167 219.766 232.199 216.268 238.212 225.429C244.226 234.59 263.973 271.934 263.973 280.635C263.973 286.436 199.618 288.45 70.9064 286.676C72.5495 239.952 79.3998 215.39 91.4573 212.992L92.5337 212.78C109.971 209.392 120.392 209.283 126.34 203.82C132.41 198.247 133.512 188.679 136.03 181.292C137.417 177.222 151.01 173.525 164.195 174.103Z" fill="white"/>
<path fill-rule="evenodd" clip-rule="evenodd" d="M187.759 188.706C187.8 188.679 187.841 188.67 187.885 188.69C188.722 189.048 188.895 189.763 189.183 190.508C189.604 191.597 190.09 192.66 190.54 193.74C191.437 195.905 192.292 198.067 193.292 200.197C194.317 202.389 195.38 204.541 196.597 206.657C197.183 207.681 197.814 208.685 198.456 209.683C198.898 210.375 199.311 211.327 199.894 211.976C199.938 211.77 200.001 211.573 200.075 211.389C199.998 211.422 199.924 211.458 199.854 211.497C199.706 211.579 199.529 211.415 199.618 211.287C199.935 210.821 200.348 210.506 200.82 210.293C202.126 209.004 230.906 215.157 238.773 222.069C253.023 234.587 262.641 250.064 268.966 266.529C272.459 275.614 275.676 284.788 278.999 293.923C282.51 303.583 286.176 313.2 289.695 322.853C290.466 324.976 288.784 326.905 286.66 327.604C282.702 328.903 278.715 330.127 274.695 331.259C276.646 337.923 278.01 344.728 278.991 351.553C281.016 365.626 281.271 379.984 284.462 393.909C285.194 397.105 286.121 400.256 287.1 403.399L287.327 404.124C287.91 405.968 288.441 407.828 289.157 409.633C289.773 411.185 290.569 412.75 291.001 414.351C291.506 416.234 290.761 418.292 288.78 419.259C287.191 420.037 284.915 419.716 283.956 418.255C283.761 417.957 283.643 417.632 283.595 417.304C283.451 417.032 283.318 416.753 283.2 416.467C283.154 416.357 283.113 416.243 283.075 416.129L282.96 415.788C282.68 414.974 282.422 414.154 282.163 413.334C281.743 412.018 281.32 410.706 280.852 409.402L280.614 408.75C279.456 405.613 278.42 402.45 277.516 399.248C274.282 387.765 273.596 375.876 272.708 364.108L272.662 363.5C271.858 352.954 271.379 342.431 272.363 331.909L272.229 331.948L272.094 331.984C270.815 332.332 269.531 332.673 268.244 333.005C268.203 333.018 268.166 333.031 268.126 333.041C267.302 333.268 266.455 333.483 265.594 333.684L265.075 333.802L264.71 333.891L264.326 333.988C263.106 334.303 261.862 334.664 260.598 334.629C258.503 334.927 256.371 335.108 254.276 335.114C254.921 344.502 255.666 353.883 256.555 363.254C257.448 372.674 258.632 382.058 259.86 391.442C260.465 396.078 261.114 400.705 261.829 405.324C262.191 407.667 262.567 409.997 263.047 412.32C263.541 414.695 264.415 417.235 263.888 419.637C263.876 419.634 263.865 419.63 263.854 419.63C263.677 420.326 263.205 420.949 262.383 421.379C260.874 422.163 258.764 421.704 257.898 420.332C257.824 420.218 257.754 420.099 257.687 419.978C256.799 420.316 255.825 420.447 254.63 420.457L238.423 420.601C231.057 420.667 223.692 420.736 216.322 420.831C193.185 421.134 170.049 421.484 146.912 421.734L138.235 421.822C125.223 421.943 112.203 422.183 99.1903 422.18C92.6807 422.18 86.1777 422.16 79.6677 422.019C76.5142 421.95 73.368 421.842 70.2181 421.727L69.662 421.704C67.1473 421.594 64.4776 421.387 62.0188 421.888C61.3402 423.062 59.6066 423.305 58.6993 422.104C56.6258 419.356 56.06 415.523 55.6769 412.164L55.542 410.955C55.1179 407.191 54.7453 403.428 54.4687 399.658C53.4876 386.3 53.1298 372.93 53.5798 359.546C53.8085 352.724 54.513 345.942 55.3465 339.16C55.6084 337.044 55.8813 334.931 56.1764 332.821L56.1815 332.071C56.182 331.831 56.1801 331.602 56.1727 331.387L56.0992 329.351C56.0381 327.655 55.9813 325.957 55.9577 324.259L55.9477 323.24L55.9367 321.343C54.1146 321.189 52.1708 320.651 50.5996 320.392C48.0513 319.969 45.5096 319.513 42.9757 319.03C37.9005 318.059 32.8806 316.911 27.8939 315.641L26.8334 315.37C22.232 314.19 17.5672 312.933 13.2142 311.169C11.5101 310.476 9.80979 309.695 8.316 308.672C8.22748 309.748 8.09101 310.821 8.00986 311.887C7.84794 313.997 7.65578 316.1 7.49718 318.21L7.34551 320.217C7.09637 323.562 6.872 326.903 6.77057 330.258C6.32059 344.892 6.24313 359.589 7.11359 374.213C7.54513 381.533 8.16109 388.853 9.04999 396.144C9.48522 399.73 9.94626 403.326 10.5143 406.899C11.1007 410.571 12.1593 414.22 12.4839 417.917C12.7937 421.484 6.6636 422.003 5.65668 418.741C4.45097 414.83 4.14383 410.612 3.5083 406.591L3.43627 406.145C2.73179 401.873 2.16747 397.584 1.6806 393.289C-5.21339e-05 378.475 -0.436528 363.585 0.444995 348.715C0.864104 341.593 1.85781 334.499 3.06053 327.452L3.20022 326.639C3.74774 323.484 4.26028 320.328 4.88034 317.186L5.11817 316.008C5.67512 313.308 6.10297 310.371 7.00662 307.671L6.73801 307.451C6.23582 307.034 5.69157 306.553 5.29522 306.034C3.93051 305.87 2.76868 304.997 2.91252 303.412C3.38095 298.205 5.52021 292.909 7.4271 287.994C9.34137 283.052 11.5618 278.203 14.0772 273.478C22.9257 256.872 35.669 241.795 51.2524 229.717C59.5181 223.309 68.5768 217.626 78.587 213.581C83.5221 211.582 88.6268 210.037 93.9749 209.204C96.6232 208.79 99.2973 208.469 101.99 208.4C104.174 207.253 106.768 207.735 108.883 208.993L108.998 209.063H109.002L109.544 209.158C109.676 209.181 109.673 209.368 109.544 209.394C109.536 209.394 109.525 209.397 109.518 209.401C109.864 209.643 110.193 209.903 110.499 210.181C111.51 211.1 111.506 212.209 110.986 213.105C114.08 215.658 116.035 218.936 118.082 222.24C120.277 225.777 123.15 228.835 126.647 231.414C139.464 240.87 158.315 245.053 174.374 240.588C186.184 237.307 196.272 228.425 199.061 217.731C198.4 217.941 197.685 217.974 197.006 217.758C193.819 216.747 192.604 213.648 191.385 211.058L191.326 210.933C190.135 208.423 189.135 205.873 188.346 203.242C187.55 200.584 187.081 197.779 186.885 195.036C186.81 193.951 186.843 192.867 186.906 191.782L186.962 190.885C187.005 190.073 186.992 189.242 187.759 188.706ZM135.905 181.393C135.949 181.294 136.122 181.242 136.189 181.36C139.01 186.537 137.159 193.631 134.492 198.569C131.7 203.734 127.495 207.652 122.512 211.041C121.826 211.507 121.121 211.966 120.406 212.416C116.249 215.028 112.546 207.986 117.345 206.641C122.346 204.38 126.411 200.351 129.236 196.118C130.763 193.831 132.117 191.449 133.153 188.949C134.186 186.455 134.805 183.86 135.905 181.393Z" fill="black"/>
<path fill-rule="evenodd" clip-rule="evenodd" d="M231.207 85.813C227.533 71.211 219.501 57.6222 206.642 46.6401C167.946 10.5706 96.8849 30.1485 97.2068 84.5026C95.819 90.8511 95.2556 97.3787 95.7151 103.853C95.905 106.616 97.1731 110.471 95.4695 112.957C91.6266 117.608 89.3933 121.036 90.7011 127.223C91.7939 132.625 95.6931 136.452 100.955 138.487C104.112 139.341 107.106 141.201 108.275 144.036C115.3 156.162 120.504 166.248 131.579 174.512C134.437 176.64 163.746 189.4 173.404 189.4C201.676 189.4 237.31 179.744 237.902 149.969C238.004 143.429 236.787 136.813 236.023 130.325C234.165 115.518 234.82 100.175 231.207 85.813Z" fill="white"/>
<path fill-rule="evenodd" clip-rule="evenodd" d="M230.57 78.5093C230.579 78.3287 230.854 78.2881 230.907 78.4664C231.958 81.9817 232.553 85.5627 233.375 89.1327C234.167 92.5714 234.914 96.0201 235.536 99.489C236.71 106.036 237.698 112.6 238.618 119.181L238.847 120.827C240.445 132.406 243.085 144.47 240.777 156.118C238.807 166.056 232.202 174.067 223.691 179.939C215.631 185.5 205.859 189.068 196.157 191.097C185.744 193.275 173.4 193.925 164.928 186.725C161.536 183.842 166.16 178.122 169.839 180.724C178.48 186.832 189.471 185.031 199.221 182.601L199.516 182.527C208.073 180.378 216.687 177.121 223.481 171.626C230.991 165.55 234.705 157.118 235.134 147.87C235.375 142.674 234.861 137.484 234.307 132.319L234.245 131.745C233.609 125.839 232.942 119.934 232.326 114.025C231.764 108.637 231.279 103.217 231.023 97.8048L230.904 95.0749C230.655 89.571 230.32 83.9867 230.57 78.5093ZM129.236 32.7778C143.296 25.8763 159.455 23.4063 175.102 25.7225C190.145 27.9491 203.95 35.2674 214.269 45.7611C219.307 50.8845 223.778 56.8109 226.636 63.2853C228.056 66.5016 229.167 69.8569 229.759 73.3029C230.063 75.0745 230.362 76.91 230.42 78.706C230.472 80.369 229.954 81.9285 230.016 83.619C230.025 83.8834 229.595 83.9343 229.53 83.681C229.041 81.7961 227.864 80.3709 227.125 78.5805C226.573 77.2437 225.946 75.9386 225.309 74.6375L224.761 73.5225C223.17 70.2821 221.269 67.1748 219.389 64.0786C215.602 57.8427 210.743 52.1754 205.054 47.3934C195.064 38.9973 182.249 33.5777 168.874 32.6018C154.991 31.5883 140.91 34.7082 129.053 41.6193C117.198 48.53 108.234 59.2729 103.58 71.6419C101.231 77.8836 99.9344 84.3871 99.6328 90.9997C99.4802 94.3469 99.6226 97.7221 99.8715 101.063L99.9951 102.656C100.14 104.566 100.239 106.469 99.9364 108.334C102.075 107.705 104.316 107.444 106.566 107.755C109.909 108.218 111.906 109.51 113.405 112.326C113.484 112.473 113.326 112.62 113.171 112.547C111.227 111.632 108.082 112.113 106.023 112.593C103.881 113.092 101.951 113.96 100.13 115.133C96.7625 117.303 94.1224 120.665 93.4746 124.523C92.8482 128.249 94.4707 132.021 97.196 134.692C98.5989 136.068 100.276 137.257 102.153 137.998C104.432 138.897 106.687 138.869 108.703 140.355C109.949 141.273 109.648 142.844 108.803 143.863C113.055 148.26 116.827 153.07 121.079 157.484C123.05 159.53 125.006 161.578 126.894 163.69L127.599 164.485C129.485 166.631 132.486 168.898 133.348 171.597C133.884 173.276 131.977 175.472 130.049 174.707C127.092 173.533 124.981 170.478 122.983 168.136L122.853 167.984C120.758 165.557 118.897 162.994 117.197 160.308L116.637 159.424C113.562 154.547 110.513 149.489 108.552 144.132C108.422 144.257 108.285 144.372 108.14 144.469C105.315 146.363 101.208 144.906 98.3866 143.676C95.723 142.516 93.2809 140.769 91.3776 138.663C87.238 134.085 85.3298 128.156 86.7124 122.215C87.8834 117.182 91.5834 112.286 96.4341 109.74C94.1951 107.31 93.268 104.034 92.651 100.831C91.8635 96.7423 91.7064 92.5523 91.9203 88.4064C92.3469 80.1485 94.601 72.0085 98.0854 64.4468C104.32 50.9167 115.341 39.599 129.236 32.7778ZM99.6436 123.065C102.595 122.543 105.345 122.418 108.191 123.595C111.278 124.873 113.451 126.982 115.471 129.454C117.769 132.265 111.879 135.336 110.394 131.604L110.351 131.489C109.953 130.384 109.24 129.316 108.338 128.333C108.067 128.724 107.705 129.068 107.28 129.266C106.765 129.504 105.978 129.339 105.854 128.719C105.717 128.03 105.869 127.196 106.29 126.613L106.348 126.533C104.3 124.98 101.838 123.845 99.6436 123.48C99.4244 123.443 99.4269 123.103 99.6436 123.065Z" fill="black"/>
</svg>
