<svg width="148" height="200" viewBox="0 0 148 200" fill="none" xmlns="http://www.w3.org/2000/svg">
<path fill-rule="evenodd" clip-rule="evenodd" d="M23.8022 132.251L119.41 139.003L119.51 139.581C121.112 148.863 121.922 155.16 121.938 158.472L121.938 158.574C121.938 161.858 123.071 167.081 125.338 174.244L125.478 174.685L23.6688 174.843L22.4678 153.284L23.8022 132.251ZM80.4045 85.9893C84.292 86.1599 88.2099 87.6425 88.5125 88.59C89.1864 90.7003 90.2703 99.7337 93.8345 101.122C97.3986 102.509 105.008 101.244 107.183 104.558C109.359 107.873 116.503 121.383 116.503 124.532C116.503 126.63 93.2201 127.359 46.6534 126.717C47.2479 109.813 49.7262 100.927 54.0885 100.059L54.4779 99.9822C60.7865 98.7563 64.5569 98.7168 66.7089 96.7406C68.9049 94.724 69.3034 91.2626 70.2144 88.59C70.7164 87.1174 75.6341 85.7798 80.4045 85.9893Z" fill="white"/>
<path fill-rule="evenodd" clip-rule="evenodd" d="M88.9298 91.2723C88.9445 91.2625 88.9593 91.2592 88.9752 91.2664C89.2781 91.3957 89.3408 91.6545 89.4449 91.924C89.597 92.3181 89.7732 92.7027 89.936 93.0933C90.2604 93.8768 90.5698 94.6591 90.9314 95.4295C91.3024 96.2225 91.6867 97.0012 92.1271 97.7669C92.3393 98.1372 92.5675 98.5005 92.7996 98.8614C92.9598 99.1118 93.1092 99.4561 93.3201 99.6912C93.3361 99.6164 93.3588 99.5451 93.3855 99.4787C93.3576 99.4905 93.3307 99.5036 93.3054 99.5178C93.252 99.5475 93.188 99.4882 93.22 99.4419C93.3347 99.2733 93.4842 99.1593 93.655 99.0822C94.1274 98.6156 104.54 100.842 107.386 103.343C112.542 107.872 116.021 113.471 118.31 119.428C119.574 122.715 120.737 126.034 121.94 129.339C123.21 132.834 124.536 136.313 125.809 139.805C126.088 140.573 125.48 141.271 124.711 141.524C123.279 141.994 121.837 142.437 120.382 142.847C121.088 145.258 121.582 147.72 121.937 150.189C122.669 155.28 122.762 160.475 123.916 165.513C124.181 166.669 124.516 167.809 124.871 168.946L124.953 169.208C125.163 169.876 125.356 170.549 125.615 171.202C125.837 171.763 126.126 172.329 126.282 172.909C126.465 173.59 126.195 174.334 125.478 174.685C124.903 174.966 124.08 174.85 123.733 174.321C123.662 174.213 123.62 174.096 123.602 173.977C123.55 173.879 123.502 173.778 123.459 173.674C123.443 173.635 123.428 173.593 123.414 173.552L123.373 173.429C123.271 173.134 123.178 172.837 123.084 172.541C122.932 172.064 122.779 171.59 122.61 171.118L122.524 170.882C122.105 169.747 121.73 168.603 121.403 167.444C120.233 163.29 119.985 158.989 119.664 154.731L119.647 154.511C119.356 150.696 119.183 146.889 119.539 143.082L119.49 143.096L119.441 143.109C118.979 143.235 118.514 143.358 118.048 143.478C118.034 143.483 118.02 143.488 118.006 143.491C117.708 143.573 117.401 143.651 117.09 143.724L116.902 143.767L116.77 143.799L116.631 143.834C116.19 143.948 115.74 144.079 115.282 144.066C114.524 144.174 113.753 144.239 112.995 144.242C113.228 147.638 113.498 151.032 113.82 154.422C114.142 157.83 114.571 161.225 115.015 164.62C115.234 166.298 115.469 167.972 115.728 169.643C115.859 170.491 115.995 171.333 116.168 172.174C116.347 173.033 116.663 173.952 116.472 174.821C116.468 174.82 116.464 174.819 116.46 174.819C116.396 175.07 116.225 175.296 115.928 175.451C115.382 175.735 114.619 175.569 114.305 175.073C114.279 175.031 114.253 174.988 114.229 174.945C113.908 175.067 113.555 175.114 113.123 175.118L107.259 175.17C104.595 175.194 101.93 175.219 99.2636 175.253C90.8929 175.363 82.5222 175.49 74.1515 175.58L71.0125 175.612C66.3046 175.656 61.5941 175.742 56.8862 175.741C54.5311 175.741 52.1784 175.734 49.8231 175.683C48.6822 175.658 47.5439 175.619 46.4043 175.577L46.2031 175.569C45.2934 175.529 44.3275 175.454 43.4379 175.635C43.1924 176.06 42.5652 176.148 42.2369 175.714C41.4868 174.72 41.2821 173.333 41.1435 172.118L41.0946 171.68C40.9412 170.318 40.8064 168.957 40.7063 167.593C40.3514 162.76 40.2219 157.923 40.3847 153.081C40.4675 150.613 40.7223 148.159 41.0239 145.705C41.1187 144.94 41.2174 144.175 41.3242 143.412L41.326 143.14C41.3262 143.054 41.3255 142.971 41.3228 142.893L41.2962 142.157C41.2741 141.543 41.2536 140.928 41.245 140.314L41.2414 139.945L41.2374 139.259C40.5782 139.204 39.875 139.009 39.3065 138.915C38.3846 138.762 37.465 138.597 36.5483 138.422C34.7121 138.071 32.8959 137.656 31.0918 137.196L30.7081 137.098C29.0434 136.671 27.3557 136.216 25.7808 135.578C25.1643 135.328 24.5491 135.045 24.0087 134.675C23.9766 135.064 23.9273 135.452 23.8979 135.838C23.8393 136.601 23.7698 137.362 23.7124 138.126L23.6575 138.852C23.5674 140.062 23.4862 141.271 23.4495 142.485C23.2867 147.779 23.2587 153.096 23.5736 158.387C23.7298 161.035 23.9526 163.684 24.2742 166.321C24.4317 167.619 24.5985 168.92 24.804 170.213C25.0162 171.541 25.3991 172.861 25.5166 174.199C25.6287 175.489 23.4108 175.677 23.0465 174.497C22.6103 173.082 22.4992 171.556 22.2693 170.101L22.2432 169.94C21.9883 168.394 21.7842 166.843 21.608 165.289C21 159.929 20.8421 154.542 21.161 149.162C21.3126 146.585 21.6721 144.019 22.1073 141.469L22.1578 141.175C22.3559 140.034 22.5413 138.892 22.7657 137.755L22.8517 137.329C23.0532 136.352 23.208 135.29 23.5349 134.313L23.4378 134.233C23.2561 134.082 23.0592 133.908 22.9158 133.72C22.422 133.661 22.0017 133.345 22.0537 132.772C22.2232 130.888 22.9972 128.972 23.6871 127.194C24.3796 125.406 25.183 123.651 26.093 121.942C29.2943 115.934 33.9048 110.479 39.5427 106.11C42.5332 103.791 45.8105 101.735 49.4321 100.272C51.2176 99.5487 53.0644 98.9896 54.9994 98.6881C55.9575 98.5385 56.9249 98.4221 57.8991 98.3972C58.6894 97.9822 59.6277 98.1568 60.3929 98.6119L60.4345 98.637H60.4359L60.632 98.6714C60.68 98.6797 60.6787 98.7474 60.632 98.7569C60.6293 98.7569 60.6253 98.7581 60.6226 98.7593C60.7481 98.8471 60.8668 98.9409 60.9776 99.0418C61.3432 99.3742 61.3419 99.7754 61.1537 100.1C62.2733 101.023 62.9806 102.209 63.7212 103.404C64.5152 104.684 65.5547 105.79 66.8197 106.723C71.4568 110.145 78.2771 111.658 84.0872 110.043C88.36 108.856 92.0097 105.642 93.0185 101.773C92.7796 101.849 92.5207 101.861 92.2752 101.783C91.1222 101.417 90.6826 100.296 90.2415 99.3589L90.2202 99.3137C89.7892 98.4055 89.4275 97.4832 89.142 96.5311C88.8539 95.5696 88.6843 94.5546 88.6136 93.5622C88.5863 93.1698 88.5983 92.7774 88.6211 92.385L88.6413 92.0606C88.6569 91.7666 88.6521 91.4662 88.9298 91.2723ZM70.1692 88.6263C70.1852 88.5906 70.2479 88.5717 70.2719 88.6144C71.2926 90.4876 70.6229 93.0541 69.658 94.8407C68.6479 96.7092 67.1267 98.1266 65.3239 99.3528C65.0757 99.5214 64.8207 99.6876 64.5619 99.8502C63.0579 100.795 61.7181 98.2476 63.4544 97.7609C65.2638 96.943 66.7344 95.4853 67.7564 93.9539C68.309 93.1265 68.7987 92.2647 69.1737 91.3601C69.5473 90.4579 69.7715 89.519 70.1692 88.6263Z" fill="black"/>
<path fill-rule="evenodd" clip-rule="evenodd" d="M104.649 54.0464C103.32 48.7636 100.414 43.8473 95.7613 39.874C81.7616 26.8244 56.0522 33.9075 56.1686 53.5724C55.6665 55.8692 55.4627 58.2308 55.6289 60.5732C55.6976 61.5726 56.1564 62.9674 55.5401 63.8668C54.1498 65.5496 53.3417 66.7899 53.8149 69.0283C54.2103 70.9828 55.621 72.3674 57.5249 73.1035C58.6667 73.4124 59.7501 74.0853 60.173 75.111C62.7145 79.4981 64.5974 83.1472 68.6041 86.137C69.638 86.9068 80.2421 91.5234 83.736 91.5234C93.9649 91.5234 106.857 88.03 107.071 77.2575C107.108 74.8914 106.667 72.4978 106.391 70.1505C105.719 64.7936 105.956 59.2427 104.649 54.0464Z" fill="white"/>
<path fill-rule="evenodd" clip-rule="evenodd" d="M104.418 51.4041C104.422 51.3387 104.521 51.324 104.54 51.3886C104.92 52.6604 105.136 53.956 105.433 55.2475C105.72 56.4916 105.99 57.7393 106.215 58.9944C106.64 61.363 106.997 63.7377 107.33 66.1187L107.413 66.7141C107.991 70.9036 108.946 75.2681 108.111 79.4821C107.398 83.0779 105.009 85.9759 101.929 88.1006C99.0135 90.1124 95.4782 91.4034 91.968 92.1374C88.2005 92.9254 83.7348 93.1605 80.6694 90.5557C79.4423 89.5127 81.1152 87.4432 82.4464 88.3845C85.5724 90.5942 89.5491 89.9428 93.0765 89.0635L93.1832 89.0368C96.2792 88.2593 99.3956 87.0809 101.853 85.0928C104.571 82.8947 105.914 79.8441 106.07 76.4982C106.157 74.6184 105.971 72.7408 105.77 70.8721L105.748 70.6645C105.518 68.5274 105.276 66.3914 105.054 64.2535C104.85 62.304 104.675 60.3432 104.582 58.385L104.539 57.3974C104.449 55.4061 104.328 53.3858 104.418 51.4041ZM67.7564 34.8588C72.8433 32.3619 78.6894 31.4682 84.3505 32.3062C89.7928 33.1118 94.7875 35.7595 98.5207 39.556C100.343 41.4097 101.961 43.5538 102.995 45.8961C103.509 47.0598 103.911 48.2737 104.125 49.5204C104.235 50.1614 104.343 50.8254 104.364 51.4753C104.383 52.0769 104.196 52.6411 104.218 53.2527C104.221 53.3484 104.066 53.3668 104.042 53.2751C103.865 52.5932 103.439 52.0776 103.172 51.4298C102.972 50.9462 102.746 50.474 102.515 50.0033L102.317 49.5999C101.741 48.4275 101.053 47.3034 100.373 46.1832C99.003 43.9271 97.2451 41.8767 95.1868 40.1466C91.5727 37.109 86.9363 35.1482 82.0971 34.7951C77.0744 34.4285 71.9799 35.5572 67.6905 38.0576C63.4013 40.5578 60.1581 44.4445 58.4742 48.9195C57.6246 51.1777 57.1554 53.5306 57.0463 55.923C56.9911 57.134 57.0426 58.3551 57.1327 59.5637L57.1774 60.1401C57.2298 60.8313 57.2657 61.5198 57.1562 62.1943C57.9298 61.9668 58.7408 61.8725 59.5547 61.9851C60.764 62.1523 61.4866 62.6198 62.0291 63.6386C62.0574 63.6918 62.0006 63.7449 61.9443 63.7185C61.241 63.3876 60.1032 63.5617 59.3583 63.7352C58.5832 63.9158 57.885 64.2298 57.2264 64.6544C56.0079 65.4393 55.0527 66.6557 54.8183 68.0513C54.5917 69.3994 55.1787 70.7643 56.1647 71.7305C56.6723 72.2282 57.2789 72.6584 57.9582 72.9264C58.7825 73.252 59.5984 73.2419 60.3277 73.7792C60.7786 74.1114 60.6696 74.6798 60.3638 75.0487C61.9025 76.6393 63.2669 78.3795 64.8054 79.9764C65.5186 80.7166 66.226 81.4577 66.9093 82.2217L67.1644 82.5094C67.8467 83.2857 68.9323 84.1058 69.2441 85.0823C69.4381 85.6897 68.7481 86.4842 68.0507 86.2074C66.9809 85.7827 66.2172 84.6777 65.4943 83.8302L65.4472 83.7753C64.6891 82.8971 64.0161 81.9699 63.4007 80.9983L63.1984 80.6782C62.0857 78.9139 60.9826 77.084 60.2731 75.1457C60.2262 75.1911 60.1766 75.2326 60.1243 75.2676C59.1022 75.9528 57.6163 75.426 56.5955 74.981C55.6318 74.561 54.7483 73.9291 54.0597 73.1674C52.562 71.5111 51.8716 69.366 52.3718 67.2163C52.7955 65.3954 54.1341 63.6242 55.8891 62.7031C55.079 61.8239 54.7436 60.6386 54.5203 59.4798C54.2354 58.0006 54.1786 56.4847 54.256 54.9848C54.4103 51.9971 55.2259 49.0521 56.4865 46.3164C58.7419 41.4213 62.7294 37.3266 67.7564 34.8588ZM57.0502 67.5239C58.1179 67.3353 59.1129 67.2897 60.1426 67.7156C61.2596 68.178 62.0458 68.9412 62.7765 69.8354C63.608 70.8525 61.477 71.9637 60.9397 70.6134L60.9239 70.5717C60.78 70.172 60.5223 69.7855 60.1958 69.4298C60.0978 69.5713 59.9668 69.6959 59.8129 69.7673C59.6266 69.8537 59.342 69.7938 59.2972 69.5694C59.2475 69.3203 59.3025 69.0184 59.4549 68.8076L59.4757 68.7788C58.735 68.2167 57.844 67.8062 57.0502 67.6741C56.9709 67.6608 56.9718 67.5377 57.0502 67.5239Z" fill="black"/>
</svg>
